<svg width="160px" height="147px" viewBox="0 0 160 147" version="1.1" xmlns="http://www.w3.org/2000/svg" xmlns:xlink="http://www.w3.org/1999/xlink">
    <g id="R2" stroke="none" stroke-width="1" fill="none" fill-rule="evenodd">
        <g id="1440_food_detail" transform="translate(-257.000000, -3237.000000)" fill="#000000">
            <g id="noun_Ramen_114571-Copy" transform="translate(337.000000, 3310.666667) scale(-1, 1) rotate(-360.000000) translate(-337.000000, -3310.666667) translate(257.000000, 3236.000000)">
                <g id="Group">
                    <path d="M66.1333333,147.733333 C29.6888889,147.733333 0,118.044444 0,81.4222222 L4.26666667,81.4222222 C4.26666667,115.555556 32,143.466667 66.3111111,143.466667 C100.622222,143.466667 128.355556,115.733333 128.355556,81.4222222 L132.622222,81.4222222 C132.444444,118.044444 102.755556,147.733333 66.1333333,147.733333 Z" id="Path"></path>
                    <path d="M66.1333333,103.644444 C23.2888889,103.644444 0,91.7333333 0,80.5333333 C0,74.6666667 5.51111111,69.3333333 16,65.2444444 L17.6,69.1555556 C9.06666667,72.5333333 4.26666667,76.6222222 4.26666667,80.5333333 C4.26666667,89.4222222 29.6888889,99.3777778 66.3111111,99.3777778 C102.933333,99.3777778 128.355556,89.4222222 128.355556,80.5333333 C128.355556,71.6444444 102.755556,61.5111111 66.1333333,61.5111111 C58.6666667,61.5111111 51.3777778,61.8666667 44.2666667,62.7555556 L43.9111111,58.6666667 C51.0222222,57.7777778 58.4888889,57.4222222 66.3111111,57.4222222 C109.333333,57.4222222 132.444444,69.3333333 132.444444,80.5333333 C132.444444,91.7333333 109.155556,103.644444 66.1333333,103.644444 Z" id="Path"></path>
                    <path d="M35.7333333,91.0222222 C35.7333333,91.0222222 35.7333333,91.0222222 35.7333333,91.0222222 C29.8666667,91.0222222 24.1777778,87.8222222 21.1555556,82.6666667 C13.6888889,70.0444444 14.2222222,56.3555556 22.4,51.5555556 C24.1777778,50.4888889 26.3111111,49.9555556 28.4444444,49.9555556 C36.0888889,49.9555556 44.6222222,56.1777778 50.1333333,65.6 C54.7555556,73.6 52.0888889,83.9111111 44.0888889,88.5333333 C41.6,90.1333333 38.7555556,91.0222222 35.7333333,91.0222222 Z M28.6222222,54.2222222 C27.2,54.2222222 25.7777778,54.5777778 24.7111111,55.2888889 C18.8444444,58.6666667 19.0222222,70.4 24.8888889,80.5333333 C27.2,84.4444444 31.2888889,86.7555556 35.7333333,86.7555556 C38.0444444,86.7555556 40.1777778,86.2222222 42.1333333,84.9777778 C48.1777778,81.4222222 50.1333333,73.7777778 46.5777778,67.7333333 C41.7777778,59.7333333 34.6666667,54.2222222 28.6222222,54.2222222 Z M35.7333333,84.2666667 C32.1777778,84.2666667 28.8,82.3111111 26.8444444,79.2888889 C24,74.4888889 25.6,68.0888889 30.4,65.2444444 C32,64.3555556 33.7777778,63.8222222 35.5555556,63.8222222 C39.1111111,63.8222222 42.4888889,65.7777778 44.4444444,68.8 C45.8666667,71.1111111 46.2222222,73.9555556 45.5111111,76.6222222 C44.8,79.2888889 43.2,81.4222222 40.7111111,82.8444444 C39.2888889,83.7333333 37.5111111,84.2666667 35.7333333,84.2666667 Z M35.7333333,68.0888889 C34.6666667,68.0888889 33.6,68.4444444 32.7111111,68.9777778 C29.8666667,70.5777778 28.9777778,74.3111111 30.5777778,77.1555556 C31.6444444,78.9333333 33.6,80.1777778 35.7333333,80.1777778 C36.8,80.1777778 37.8666667,79.8222222 38.7555556,79.2888889 C40.1777778,78.4 41.0666667,77.1555556 41.6,75.5555556 C41.9555556,73.9555556 41.7777778,72.3555556 40.8888889,70.9333333 C39.8222222,69.1555556 37.8666667,68.0888889 35.7333333,68.0888889 Z" id="Shape" fill-rule="nonzero"></path>
                    <path d="M57.2444444,91.3777778 C56.7111111,91.3777778 56.1777778,91.2 55.8222222,90.8444444 C54.9333333,89.9555556 54.9333333,88.7111111 55.8222222,87.8222222 C57.7777778,85.6888889 57.7777778,85.3333333 56.5333333,82.1333333 C56.1777778,81.2444444 55.8222222,80.3555556 55.4666667,79.2888889 C53.3333333,73.0666667 54.2222222,70.9333333 58.1333333,66.8444444 C59.7333333,65.0666667 59.7333333,64.8888889 58.4888889,62.7555556 C58.1333333,62.0444444 57.7777778,61.3333333 57.4222222,60.4444444 C55.2888889,55.4666667 57.4222222,51.5555556 60.0888889,46.4 C62.2222222,42.1333333 59.0222222,35.0222222 57.2444444,33.0666667 C56.5333333,32.1777778 56.5333333,30.9333333 57.2444444,30.0444444 C58.1333333,29.3333333 59.3777778,29.3333333 60.2666667,30.0444444 C62.5777778,32.5333333 67.2,41.6 63.8222222,48.1777778 C60.9777778,53.6888889 60.0888889,56 61.3333333,58.6666667 C61.6888889,59.3777778 62.0444444,60.0888889 62.4,60.6222222 C63.6444444,62.9333333 65.0666667,65.6 61.3333333,69.5111111 C58.4888889,72.5333333 58.1333333,72.8888889 59.7333333,77.6888889 C60.0888889,78.7555556 60.4444444,79.6444444 60.8,80.3555556 C62.0444444,83.7333333 63.1111111,86.4 59.2,90.4888889 C58.3111111,91.0222222 57.7777778,91.3777778 57.2444444,91.3777778 Z" id="Path"></path>
                    <path d="M83.2,84.9777778 C82.8444444,84.9777778 82.6666667,84.9777778 82.3111111,84.8 C81.2444444,84.2666667 80.8888889,83.0222222 81.4222222,81.9555556 C82.6666667,79.2888889 82.4888889,78.9333333 80.1777778,76.4444444 C79.6444444,75.7333333 78.9333333,75.0222222 78.2222222,73.9555556 C74.1333333,68.6222222 74.3111111,66.4888889 76.6222222,61.3333333 C77.6888889,59.2 77.5111111,59.0222222 75.7333333,57.4222222 C75.2,56.8888889 74.4888889,56.3555556 73.9555556,55.6444444 C70.4,51.7333333 71.1111111,47.1111111 71.8222222,41.4222222 C72.5333333,36.6222222 67.2,30.9333333 64.8888889,29.6888889 C63.8222222,29.1555556 63.4666667,27.9111111 64,26.8444444 C64.5333333,25.7777778 65.7777778,25.4222222 66.8444444,25.9555556 C69.8666667,27.5555556 76.9777778,34.6666667 76.0888889,41.9555556 C75.2,48 75.0222222,50.4888889 77.1555556,52.8 C77.6888889,53.5111111 78.2222222,53.8666667 78.7555556,54.4 C80.7111111,56.1777778 82.8444444,58.3111111 80.7111111,63.1111111 C78.9333333,66.8444444 78.7555556,67.3777778 81.7777778,71.4666667 C82.4888889,72.3555556 83.0222222,73.0666667 83.5555556,73.7777778 C85.8666667,76.6222222 87.8222222,78.7555556 85.3333333,83.9111111 C84.6222222,84.6222222 83.9111111,84.9777778 83.2,84.9777778 Z" id="Path"></path>
                    <path d="M72.1777778,88.8888889 C71.8222222,88.8888889 71.4666667,88.7111111 71.1111111,88.5333333 C70.2222222,87.8222222 69.8666667,86.5777778 70.4,85.6888889 C72,83.2 71.8222222,82.8444444 69.8666667,80 C69.3333333,79.2888889 68.8,78.4 68.2666667,77.3333333 C64.8888889,71.6444444 65.2444444,69.5111111 68.2666667,64.7111111 C69.5111111,62.7555556 69.3333333,62.5777778 67.9111111,60.6222222 C67.3777778,60.0888889 66.8444444,59.3777778 66.3111111,58.4888889 C63.2888889,54.0444444 64.5333333,49.7777778 65.9555556,44.0888889 C67.2,39.4666667 62.5777778,33.2444444 60.4444444,31.6444444 C59.5555556,30.9333333 59.2,29.6888889 59.9111111,28.8 C60.6222222,27.9111111 61.8666667,27.5555556 62.7555556,28.2666667 C65.6,30.2222222 71.8222222,38.2222222 69.8666667,45.3333333 C68.2666667,51.2 67.7333333,53.6888889 69.5111111,56.1777778 C70.0444444,56.8888889 70.4,57.4222222 70.9333333,57.9555556 C72.7111111,60.0888889 74.4888889,62.4 71.6444444,66.8444444 C69.5111111,70.4 69.1555556,70.7555556 71.6444444,75.2 C72.1777778,76.0888889 72.7111111,76.9777778 73.2444444,77.6888889 C75.2,80.7111111 76.8,83.2 73.7777778,88 C73.6,88.5333333 72.8888889,88.8888889 72.1777778,88.8888889 Z" id="Path"></path>
                    <path d="M159.644444,6.57777778 L158.755556,2.48888889 C158.755556,2.13333333 158.577778,1.95555556 158.222222,1.77777778 C158.044444,1.6 157.688889,1.6 157.333333,1.6 L53.3333333,31.8222222 C52.8,32 52.4444444,32.5333333 52.6222222,33.0666667 L53.1555556,35.2 C53.1555556,35.5555556 53.3333333,35.7333333 53.6888889,35.9111111 C53.8666667,36.0888889 54.0444444,36.0888889 54.2222222,36.0888889 C54.4,36.0888889 54.4,36.0888889 54.5777778,36.0888889 L159.111111,8 C159.288889,7.64444444 159.644444,7.11111111 159.644444,6.57777778 Z" id="Path"></path>
                    <path d="M159.288889,13.8666667 C159.288889,13.5111111 159.111111,13.3333333 158.755556,13.1555556 C158.577778,12.9777778 158.222222,12.9777778 157.866667,12.9777778 L52.8,37.3333333 C52.2666667,37.5111111 51.9111111,38.0444444 51.9111111,38.5777778 L52.2666667,40.7111111 C52.2666667,41.0666667 52.4444444,41.2444444 52.6222222,41.4222222 C52.8,41.6 52.9777778,41.6 53.1555556,41.6 C53.1555556,41.6 53.3333333,41.6 53.3333333,41.6 L158.933333,19.2 C159.466667,19.0222222 159.822222,18.4888889 159.822222,17.9555556 L159.288889,13.8666667 Z" id="Path"></path>
                    <path d="M119.288889,91.7333333 C115.2,81.4222222 89.0666667,75.2 66.1333333,75.2 C60.8,75.2 55.6444444,75.5555556 50.6666667,76.0888889 L50.1333333,72 C55.2888889,71.4666667 60.6222222,71.1111111 66.1333333,71.1111111 C94.7555556,71.1111111 118.755556,79.1111111 123.2,90.3111111 L119.288889,91.7333333 Z" id="Path"></path>
                    <path d="M13.1555556,91.7333333 L9.24444444,90.1333333 C10.8444444,86.4 14.4,82.8444444 20.0888889,79.8222222 L22.0444444,83.5555556 C17.2444444,86.2222222 14.2222222,88.8888889 13.1555556,91.7333333 Z" id="Path"></path>
                </g>
            </g>
        </g>
    </g>
</svg>